<svg width="369" height="38" viewBox="0 0 369 38" fill="none" xmlns="http://www.w3.org/2000/svg">
<path d="M12 30C9.67997 30 7.6133 29.5333 5.79997 28.6C3.98664 27.64 2.55997 26.32 1.51997 24.64C0.506637 22.96 -2.92361e-05 21.0533 -2.92361e-05 18.92C-2.92361e-05 16.76 0.506637 14.8533 1.51997 13.2C2.55997 11.52 3.98664 10.2133 5.79997 9.27999C7.6133 8.31999 9.67997 7.83999 12 7.83999C14.2666 7.83999 16.24 8.31999 17.92 9.27999C19.6 10.2133 20.84 11.56 21.64 13.32L16.8 15.92C16.24 14.9067 15.5333 14.16 14.68 13.68C13.8533 13.2 12.9466 12.96 11.96 12.96C10.8933 12.96 9.9333 13.2 9.07997 13.68C8.22664 14.16 7.54664 14.84 7.03997 15.72C6.55997 16.6 6.31997 17.6667 6.31997 18.92C6.31997 20.1733 6.55997 21.24 7.03997 22.12C7.54664 23 8.22664 23.68 9.07997 24.16C9.9333 24.64 10.8933 24.88 11.96 24.88C12.9466 24.88 13.8533 24.6533 14.68 24.2C15.5333 23.72 16.24 22.96 16.8 21.92L21.64 24.56C20.84 26.2933 19.6 27.64 17.92 28.6C16.24 29.5333 14.2666 30 12 30ZM38.1956 7.83999C39.9023 7.83999 41.4223 8.18666 42.7556 8.87999C44.1156 9.54666 45.1823 10.5867 45.9556 12C46.7289 13.3867 47.1156 15.1733 47.1156 17.36V29.68H40.8756V18.32C40.8756 16.5867 40.4889 15.3067 39.7156 14.48C38.9689 13.6533 37.9023 13.24 36.5156 13.24C35.5289 13.24 34.6356 13.4533 33.8356 13.88C33.0623 14.28 32.4489 14.9067 31.9956 15.76C31.5689 16.6133 31.3556 17.7067 31.3556 19.04V29.68H25.1156V-9.05991e-06H31.3556V14.12L29.9556 12.32C30.7289 10.88 31.8356 9.77332 33.2756 8.99999C34.7156 8.22666 36.3556 7.83999 38.1956 7.83999ZM63.1681 30C60.8748 30 58.8348 29.52 57.0481 28.56C55.2881 27.6 53.8881 26.2933 52.8481 24.64C51.8348 22.96 51.3281 21.0533 51.3281 18.92C51.3281 16.76 51.8348 14.8533 52.8481 13.2C53.8881 11.52 55.2881 10.2133 57.0481 9.27999C58.8348 8.31999 60.8748 7.83999 63.1681 7.83999C65.4348 7.83999 67.4614 8.31999 69.2481 9.27999C71.0348 10.2133 72.4348 11.5067 73.4481 13.16C74.4614 14.8133 74.9681 16.7333 74.9681 18.92C74.9681 21.0533 74.4614 22.96 73.4481 24.64C72.4348 26.2933 71.0348 27.6 69.2481 28.56C67.4614 29.52 65.4348 30 63.1681 30ZM63.1681 24.88C64.2081 24.88 65.1414 24.64 65.9681 24.16C66.7948 23.68 67.4481 23 67.9281 22.12C68.4081 21.2133 68.6481 20.1467 68.6481 18.92C68.6481 17.6667 68.4081 16.6 67.9281 15.72C67.4481 14.84 66.7948 14.16 65.9681 13.68C65.1414 13.2 64.2081 12.96 63.1681 12.96C62.1281 12.96 61.1948 13.2 60.3681 13.68C59.5414 14.16 58.8748 14.84 58.3681 15.72C57.8881 16.6 57.6481 17.6667 57.6481 18.92C57.6481 20.1467 57.8881 21.2133 58.3681 22.12C58.8748 23 59.5414 23.68 60.3681 24.16C61.1948 24.64 62.1281 24.88 63.1681 24.88ZM89.539 30C87.219 30 85.1524 29.5333 83.339 28.6C81.5257 27.64 80.099 26.32 79.059 24.64C78.0457 22.96 77.539 21.0533 77.539 18.92C77.539 16.76 78.0457 14.8533 79.059 13.2C80.099 11.52 81.5257 10.2133 83.339 9.27999C85.1524 8.31999 87.219 7.83999 89.539 7.83999C91.8057 7.83999 93.779 8.31999 95.459 9.27999C97.139 10.2133 98.379 11.56 99.179 13.32L94.339 15.92C93.779 14.9067 93.0724 14.16 92.219 13.68C91.3924 13.2 90.4857 12.96 89.499 12.96C88.4324 12.96 87.4724 13.2 86.619 13.68C85.7657 14.16 85.0857 14.84 84.579 15.72C84.099 16.6 83.859 17.6667 83.859 18.92C83.859 20.1733 84.099 21.24 84.579 22.12C85.0857 23 85.7657 23.68 86.619 24.16C87.4724 24.64 88.4324 24.88 89.499 24.88C90.4857 24.88 91.3924 24.6533 92.219 24.2C93.0724 23.72 93.779 22.96 94.339 21.92L99.179 24.56C98.379 26.2933 97.139 27.64 95.459 28.6C93.779 29.5333 91.8057 30 89.539 30ZM112.738 30C110.445 30 108.405 29.52 106.618 28.56C104.858 27.6 103.458 26.2933 102.418 24.64C101.405 22.96 100.898 21.0533 100.898 18.92C100.898 16.76 101.405 14.8533 102.418 13.2C103.458 11.52 104.858 10.2133 106.618 9.27999C108.405 8.31999 110.445 7.83999 112.738 7.83999C115.005 7.83999 117.032 8.31999 118.818 9.27999C120.605 10.2133 122.005 11.5067 123.018 13.16C124.032 14.8133 124.538 16.7333 124.538 18.92C124.538 21.0533 124.032 22.96 123.018 24.64C122.005 26.2933 120.605 27.6 118.818 28.56C117.032 29.52 115.005 30 112.738 30ZM112.738 24.88C113.778 24.88 114.712 24.64 115.538 24.16C116.365 23.68 117.018 23 117.498 22.12C117.978 21.2133 118.218 20.1467 118.218 18.92C118.218 17.6667 117.978 16.6 117.498 15.72C117.018 14.84 116.365 14.16 115.538 13.68C114.712 13.2 113.778 12.96 112.738 12.96C111.698 12.96 110.765 13.2 109.938 13.68C109.112 14.16 108.445 14.84 107.938 15.72C107.458 16.6 107.218 17.6667 107.218 18.92C107.218 20.1467 107.458 21.2133 107.938 22.12C108.445 23 109.112 23.68 109.938 24.16C110.765 24.64 111.698 24.88 112.738 24.88ZM141.429 30C139.536 30 137.909 29.6 136.549 28.8C135.189 28 134.149 26.7867 133.429 25.16C132.709 23.5067 132.349 21.4267 132.349 18.92C132.349 16.3867 132.723 14.3067 133.469 12.68C134.243 11.0533 135.309 9.83999 136.669 9.03999C138.029 8.23999 139.616 7.83999 141.429 7.83999C143.456 7.83999 145.269 8.29333 146.869 9.19999C148.496 10.1067 149.776 11.3867 150.709 13.04C151.669 14.6933 152.149 16.6533 152.149 18.92C152.149 21.16 151.669 23.1067 150.709 24.76C149.776 26.4133 148.496 27.7067 146.869 28.64C145.269 29.5467 143.456 30 141.429 30ZM128.709 29.68V-9.05991e-06H134.949V12.52L134.549 18.88L134.669 25.28V29.68H128.709ZM140.349 24.88C141.389 24.88 142.309 24.64 143.109 24.16C143.936 23.68 144.589 23 145.069 22.12C145.576 21.2133 145.829 20.1467 145.829 18.92C145.829 17.6667 145.576 16.6 145.069 15.72C144.589 14.84 143.936 14.16 143.109 13.68C142.309 13.2 141.389 12.96 140.349 12.96C139.309 12.96 138.376 13.2 137.549 13.68C136.723 14.16 136.069 14.84 135.589 15.72C135.109 16.6 134.869 17.6667 134.869 18.92C134.869 20.1467 135.109 21.2133 135.589 22.12C136.069 23 136.723 23.68 137.549 24.16C138.376 24.64 139.309 24.88 140.349 24.88ZM167.007 30C164.553 30 162.393 29.52 160.527 28.56C158.687 27.6 157.26 26.2933 156.247 24.64C155.233 22.96 154.727 21.0533 154.727 18.92C154.727 16.76 155.22 14.8533 156.207 13.2C157.22 11.52 158.593 10.2133 160.327 9.27999C162.06 8.31999 164.02 7.83999 166.207 7.83999C168.313 7.83999 170.207 8.29333 171.887 9.19999C173.593 10.08 174.94 11.36 175.927 13.04C176.913 14.6933 177.407 16.68 177.407 19C177.407 19.24 177.393 19.52 177.367 19.84C177.34 20.1333 177.313 20.4133 177.287 20.68H159.807V17.04H174.007L171.607 18.12C171.607 17 171.38 16.0267 170.927 15.2C170.473 14.3733 169.847 13.7333 169.047 13.28C168.247 12.8 167.313 12.56 166.247 12.56C165.18 12.56 164.233 12.8 163.407 13.28C162.607 13.7333 161.98 14.3867 161.527 15.24C161.073 16.0667 160.847 17.0533 160.847 18.2V19.16C160.847 20.3333 161.1 21.3733 161.607 22.28C162.14 23.16 162.873 23.84 163.807 24.32C164.767 24.7733 165.887 25 167.167 25C168.313 25 169.313 24.8267 170.167 24.48C171.047 24.1333 171.847 23.6133 172.567 22.92L175.887 26.52C174.9 27.64 173.66 28.5067 172.167 29.12C170.673 29.7067 168.953 30 167.007 30ZM181.561 29.68V8.15999H187.521V14.24L186.681 12.48C187.321 10.96 188.348 9.81333 189.761 9.03999C191.174 8.23999 192.894 7.83999 194.921 7.83999V13.6C194.654 13.5733 194.414 13.56 194.201 13.56C193.988 13.5333 193.761 13.52 193.521 13.52C191.814 13.52 190.428 14.0133 189.361 15C188.321 15.96 187.801 17.4667 187.801 19.52V29.68H181.561ZM198.67 29.68V8.15999H204.63V14.24L203.79 12.48C204.43 10.96 205.457 9.81333 206.87 9.03999C208.284 8.23999 210.004 7.83999 212.03 7.83999V13.6C211.764 13.5733 211.524 13.56 211.31 13.56C211.097 13.5333 210.87 13.52 210.63 13.52C208.924 13.52 207.537 14.0133 206.47 15C205.43 15.96 204.91 17.4667 204.91 19.52V29.68H198.67ZM219.203 37.76C218.083 37.76 216.976 37.5867 215.883 37.24C214.789 36.8933 213.896 36.4133 213.203 35.8L215.483 31.36C215.963 31.7867 216.509 32.12 217.123 32.36C217.763 32.6 218.389 32.72 219.003 32.72C219.883 32.72 220.576 32.5067 221.083 32.08C221.616 31.68 222.096 31 222.523 30.04L223.643 27.4L224.123 26.72L231.843 8.15999H237.843L228.123 31C227.429 32.7333 226.629 34.0933 225.723 35.08C224.843 36.0667 223.856 36.76 222.763 37.16C221.696 37.56 220.509 37.76 219.203 37.76ZM222.883 30.52L213.283 8.15999H219.723L227.163 26.16L222.883 30.52ZM236.845 33.28V29.68H256.845V33.28H236.845ZM272.445 30C270.632 30 269.045 29.6 267.685 28.8C266.325 28 265.258 26.7867 264.485 25.16C263.738 23.5067 263.365 21.4267 263.365 18.92C263.365 16.3867 263.725 14.3067 264.445 12.68C265.165 11.0533 266.205 9.83999 267.565 9.03999C268.925 8.23999 270.552 7.83999 272.445 7.83999C274.472 7.83999 276.285 8.30666 277.885 9.23999C279.512 10.1467 280.792 11.4267 281.725 13.08C282.685 14.7333 283.165 16.68 283.165 18.92C283.165 21.1867 282.685 23.1467 281.725 24.8C280.792 26.4533 279.512 27.7333 277.885 28.64C276.285 29.5467 274.472 30 272.445 30ZM259.725 37.44V8.15999H265.685V12.56L265.565 18.96L265.965 25.32V37.44H259.725ZM271.365 24.88C272.405 24.88 273.325 24.64 274.125 24.16C274.952 23.68 275.605 23 276.085 22.12C276.592 21.2133 276.845 20.1467 276.845 18.92C276.845 17.6667 276.592 16.6 276.085 15.72C275.605 14.84 274.952 14.16 274.125 13.68C273.325 13.2 272.405 12.96 271.365 12.96C270.325 12.96 269.392 13.2 268.565 13.68C267.738 14.16 267.085 14.84 266.605 15.72C266.125 16.6 265.885 17.6667 265.885 18.92C265.885 20.1467 266.125 21.2133 266.605 22.12C267.085 23 267.738 23.68 268.565 24.16C269.392 24.64 270.325 24.88 271.365 24.88ZM287.342 29.68V-9.05991e-06H293.582V29.68H287.342ZM312.573 29.68V25.48L312.173 24.56V17.04C312.173 15.7067 311.76 14.6667 310.933 13.92C310.133 13.1733 308.893 12.8 307.213 12.8C306.067 12.8 304.933 12.9867 303.813 13.36C302.72 13.7067 301.787 14.1867 301.013 14.8L298.773 10.44C299.947 9.61332 301.36 8.97332 303.013 8.51999C304.667 8.06666 306.347 7.83999 308.053 7.83999C311.333 7.83999 313.88 8.61333 315.693 10.16C317.507 11.7067 318.413 14.12 318.413 17.4V29.68H312.573ZM306.013 30C304.333 30 302.893 29.72 301.693 29.16C300.493 28.5733 299.573 27.7867 298.933 26.8C298.293 25.8133 297.973 24.7067 297.973 23.48C297.973 22.2 298.28 21.08 298.893 20.12C299.533 19.16 300.533 18.4133 301.893 17.88C303.253 17.32 305.027 17.04 307.213 17.04H312.933V20.68H307.893C306.427 20.68 305.413 20.92 304.853 21.4C304.32 21.88 304.053 22.48 304.053 23.2C304.053 24 304.36 24.64 304.973 25.12C305.613 25.5733 306.48 25.8 307.573 25.8C308.613 25.8 309.547 25.56 310.373 25.08C311.2 24.5733 311.8 23.84 312.173 22.88L313.133 25.76C312.68 27.1467 311.853 28.2 310.653 28.92C309.453 29.64 307.907 30 306.013 30ZM334.617 30C332.297 30 330.23 29.5333 328.417 28.6C326.604 27.64 325.177 26.32 324.137 24.64C323.124 22.96 322.617 21.0533 322.617 18.92C322.617 16.76 323.124 14.8533 324.137 13.2C325.177 11.52 326.604 10.2133 328.417 9.27999C330.23 8.31999 332.297 7.83999 334.617 7.83999C336.884 7.83999 338.857 8.31999 340.537 9.27999C342.217 10.2133 343.457 11.56 344.257 13.32L339.417 15.92C338.857 14.9067 338.15 14.16 337.297 13.68C336.47 13.2 335.564 12.96 334.577 12.96C333.51 12.96 332.55 13.2 331.697 13.68C330.844 14.16 330.164 14.84 329.657 15.72C329.177 16.6 328.937 17.6667 328.937 18.92C328.937 20.1733 329.177 21.24 329.657 22.12C330.164 23 330.844 23.68 331.697 24.16C332.55 24.64 333.51 24.88 334.577 24.88C335.564 24.88 336.47 24.6533 337.297 24.2C338.15 23.72 338.857 22.96 339.417 21.92L344.257 24.56C343.457 26.2933 342.217 27.64 340.537 28.6C338.857 29.5333 336.884 30 334.617 30ZM358.257 30C355.803 30 353.643 29.52 351.777 28.56C349.937 27.6 348.51 26.2933 347.497 24.64C346.483 22.96 345.977 21.0533 345.977 18.92C345.977 16.76 346.47 14.8533 347.457 13.2C348.47 11.52 349.843 10.2133 351.577 9.27999C353.31 8.31999 355.27 7.83999 357.457 7.83999C359.563 7.83999 361.457 8.29333 363.137 9.19999C364.843 10.08 366.19 11.36 367.177 13.04C368.163 14.6933 368.657 16.68 368.657 19C368.657 19.24 368.643 19.52 368.617 19.84C368.59 20.1333 368.563 20.4133 368.537 20.68H351.057V17.04H365.257L362.857 18.12C362.857 17 362.63 16.0267 362.177 15.2C361.723 14.3733 361.097 13.7333 360.297 13.28C359.497 12.8 358.563 12.56 357.497 12.56C356.43 12.56 355.483 12.8 354.657 13.28C353.857 13.7333 353.23 14.3867 352.777 15.24C352.323 16.0667 352.097 17.0533 352.097 18.2V19.16C352.097 20.3333 352.35 21.3733 352.857 22.28C353.39 23.16 354.123 23.84 355.057 24.32C356.017 24.7733 357.137 25 358.417 25C359.563 25 360.563 24.8267 361.417 24.48C362.297 24.1333 363.097 23.6133 363.817 22.92L367.137 26.52C366.15 27.64 364.91 28.5067 363.417 29.12C361.923 29.7067 360.203 30 358.257 30Z" fill="#8A2B3D"/>
</svg>
